<?xml version="1.0" encoding="UTF-8"?>
<svg width="92px" height="40px" viewBox="0 0 92 40" version="1.1" xmlns="http://www.w3.org/2000/svg" xmlns:xlink="http://www.w3.org/1999/xlink">
    <title>Logo-Switch-White</title>
    <g id="Logos" stroke="none" stroke-width="1" fill="none" fill-rule="evenodd">
        <g id="Logos/Switch-Guarantee/White" fill="#FFFFFF">
            <path d="M78.8008565,0 C82.333627,0 85.196071,2.7343118 85.196071,6.10655264 L85.196071,11.2527447 L84.7264963,10.7823876 C83.9707927,10.0254247 82.7443606,10.0254247 81.9898107,10.7823876 L79.3673459,13.4080666 L3.85581936,13.4080666 L3.86389559,31.9565469 C3.86389559,34.2540159 5.72950298,36.1238877 8.02430391,36.1238877 L77.262913,36.1238877 C79.557714,36.1238877 81.4233213,34.2540159 81.4233213,31.9565469 L81.4233213,18.7010285 L78.0209242,22.1079394 C77.6436492,22.4869987 77.1475384,22.6765284 76.6525814,22.6765284 C76.1564705,22.6765284 75.6615135,22.4869987 75.2842385,22.1079394 C74.5285348,21.3521322 74.5285348,20.1236565 75.2842385,19.3678493 L81.9898107,12.649948 C82.7443606,11.8929851 83.9707927,11.8929851 84.7264963,12.649948 L85.1972247,13.1226164 L91.4332222,19.3678493 C92.1889259,20.1248122 92.1889259,21.3521322 91.4332222,22.1090951 C91.0547935,22.4881544 90.5586827,22.677684 90.0637257,22.677684 C89.5699223,22.677684 89.0738115,22.4881544 88.6953828,22.1090951 L85.2929857,18.7010285 L85.2929857,31.9565469 C85.2929857,36.3920028 81.6909904,40 77.262913,40 L8.02430391,40 C3.5962265,40 0,36.3920028 0,31.9565469 L0,6.10655264 C0,2.7343118 2.86936647,0 6.40098319,0 L78.8008565,0 Z M21.6266239,24.5867329 C22.1388872,24.5867329 22.4665511,24.9253438 22.4665511,25.4280596 L22.4665511,29.342309 C22.4665511,31.37513 21.2158903,32.2892638 19.2568295,32.2892638 C17.2989224,32.2892638 16.0482617,31.37513 16.0482617,29.342309 L16.0482617,25.4280596 C16.0482617,24.9253438 16.3747718,24.5867329 16.8881888,24.5867329 C17.4016058,24.5867329 17.7304235,24.9253438 17.7304235,25.4280596 L17.7304235,29.4752109 C17.7304235,30.4817982 18.2934516,30.9336646 19.2568295,30.9336646 C20.2213612,30.9336646 20.7843893,30.4817982 20.7843893,29.4752109 L20.7843893,25.4280596 C20.7843893,24.9253438 21.1143607,24.5867329 21.6266239,24.5867329 Z M11.4575061,24.5462845 C13.3242672,24.5462845 14.3187963,25.6661274 14.3187963,26.3225471 C14.3187963,26.9073154 13.8872953,27.0610193 13.529634,27.0610193 C12.6989369,27.0610193 13.0058333,25.9007281 11.3663602,25.9007281 C10.2079991,25.9007281 9.29538596,26.6623136 9.29538596,28.5310297 C9.29538596,29.9883277 10.013016,30.9949151 11.3859738,30.9949151 C12.2778195,30.9949151 13.0577519,30.3905004 13.1408216,29.4867676 L12.0424553,29.4867676 C11.6836403,29.4867676 11.2832904,29.35271 11.2832904,28.8384375 C11.2832904,28.4281752 11.5198084,28.1912631 11.9397719,28.1912631 L14.0107461,28.1912631 C14.5033957,28.1912631 14.6983788,28.4374205 14.6983788,28.9008436 L14.6983788,31.6836935 C14.6983788,31.992257 14.4630146,32.2488154 14.1238133,32.2488154 C13.6415474,32.2488154 13.5077129,31.950653 13.4061832,31.2930775 C12.9239173,31.8998035 12.2570521,32.2892638 11.2117582,32.2892638 C8.6077533,32.2892638 7.61207044,30.4933549 7.61207044,28.4189299 C7.61207044,25.9215301 9.17193513,24.5462845 11.4575061,24.5462845 Z M58.1865294,24.7196348 C58.6676415,24.7196348 59.0587614,24.9669479 59.0587614,25.4280596 C59.0587614,25.8914827 58.6676415,26.1376401 58.1865294,26.1376401 L56.5978211,26.1376401 L56.5978211,31.4074887 C56.5978211,31.9090489 56.2690034,32.2488154 55.7567402,32.2488154 C55.2444769,32.2488154 54.9156593,31.9090489 54.9156593,31.4074887 L54.9156593,26.1376401 L53.3269509,26.1376401 C52.8435313,26.1376401 52.4547189,25.8914827 52.4547189,25.4280596 C52.4547189,24.9669479 52.8435313,24.7196348 53.3269509,24.7196348 Z M50.7956321,24.5867329 C51.2986654,24.5867329 51.6055618,24.8536924 51.6055618,25.3980123 L51.6055618,31.2017797 C51.6055618,31.8686005 51.3194328,32.2488154 50.6110327,32.2488154 C50.078002,32.2488154 49.9037864,32.1367156 49.6891896,31.796949 L46.7667508,27.1742748 L46.7459834,27.1742748 L46.7459834,31.4375361 C46.7459834,31.9830117 46.4379332,32.2488154 45.9360536,32.2488154 C45.4330203,32.2488154 45.1249701,31.9830117 45.1249701,31.4375361 L45.1249701,25.5725182 C45.1249701,24.8744944 45.4641715,24.5867329 46.1818015,24.5867329 C46.5313866,24.5867329 46.8382831,24.7196348 47.0240362,25.0281983 L49.9660886,29.7837744 L49.9857023,29.7837744 L49.9857023,25.3980123 C49.9857023,24.8536924 50.2925988,24.5867329 50.7956321,24.5867329 Z M41.1964648,24.5867329 C41.5748935,24.5867329 41.9140948,24.6780307 42.0986942,25.2027043 L44.1292873,30.8631688 C44.1904358,31.0261181 44.2931192,31.3254363 44.2931192,31.5091876 C44.2931192,31.9194499 43.9343042,32.2488154 43.5039569,32.2488154 C43.1336044,32.2488154 42.8682428,32.1159136 42.744792,31.786548 L42.3144447,30.5534497 L39.6066027,30.5534497 L39.1658717,31.786548 C39.0528046,32.1159136 38.8174404,32.2488154 38.4170905,32.2488154 C37.9567458,32.2488154 37.6383119,31.9622096 37.6383119,31.5091876 C37.6383119,31.3254363 37.742149,31.0261181 37.8021438,30.8631688 L39.9769552,25.1010054 C40.1200197,24.7196348 40.3853813,24.5867329 40.7972686,24.5867329 Z M34.4089766,24.7196348 C36.4095723,24.7196348 36.9414493,25.8186756 36.9414493,26.7744135 C36.9414493,27.5752918 36.4707209,28.3657691 35.6700211,28.5518317 L35.6700211,28.5714781 C36.5318694,28.6951346 36.6853176,29.321507 36.6853176,30.0715359 C36.6853176,30.9244193 36.9114519,31.2422281 36.9114519,31.59124 C36.9114519,31.9830117 36.511102,32.2488154 36.1211358,32.2488154 C35.1992927,32.2488154 35.1266067,31.354328 35.1266067,31.0573212 C35.1266067,29.7629724 34.8900888,29.2394545 33.9682456,29.2394545 L32.3068513,29.2394545 L32.3068513,31.4074887 C32.3068513,31.9090489 31.9791874,32.2488154 31.4657704,32.2488154 C30.9535072,32.2488154 30.6258433,31.9090489 30.6258433,31.4074887 L30.6258433,25.7054201 C30.6258433,24.9553912 31.0158095,24.7196348 31.6088349,24.7196348 Z M26.6800317,24.5867329 C27.0596142,24.5867329 27.3976618,24.6780307 27.5822612,25.2027043 L29.6128542,30.8631688 C29.6740028,31.0261181 29.7766862,31.3254363 29.7766862,31.5091876 C29.7766862,31.9194499 29.4178712,32.2488154 28.9875239,32.2488154 C28.6183251,32.2488154 28.3518098,32.1159136 28.2295127,31.786548 L27.7980117,30.5534497 L25.0913234,30.5534497 L24.6505924,31.786548 C24.5375253,32.1159136 24.3021611,32.2488154 23.9018112,32.2488154 C23.4403128,32.2488154 23.1218789,31.9622096 23.1218789,31.5091876 C23.1218789,31.3254363 23.2245623,31.0261181 23.2857108,30.8631688 L25.4605221,25.1010054 C25.6035866,24.7196348 25.870102,24.5867329 26.2808356,24.5867329 Z M71.8065017,24.7196348 C72.2979976,24.7196348 72.6568126,24.8640934 72.6568126,25.3980123 C72.6568126,25.9319311 72.2979976,26.0763897 71.8065017,26.0763897 L68.5552453,26.0763897 L68.5552453,27.6781463 L71.4049981,27.6781463 C71.8468828,27.6781463 72.1953142,27.8006472 72.1953142,28.324165 C72.1953142,28.8488386 71.8468828,28.9724951 71.4049981,28.9724951 L68.5552453,28.9724951 L68.5552453,30.7591587 L71.8884177,30.7591587 C72.3799135,30.7591587 72.7375748,30.9024616 72.7375748,31.4375361 C72.7375748,31.971455 72.3799135,32.1159136 71.8884177,32.1159136 L67.8572289,32.1159136 C67.2630497,32.1159136 66.8719298,31.8790015 66.8719298,31.1301283 L66.8719298,25.7054201 C66.8719298,24.9553912 67.2630497,24.7196348 67.8572289,24.7196348 Z M64.8736416,24.7196348 C65.3651374,24.7196348 65.7239525,24.8640934 65.7239525,25.3980123 C65.7239525,25.9319311 65.3651374,26.0763897 64.8736416,26.0763897 L61.6235389,26.0763897 L61.6235389,27.6781463 L64.4744455,27.6781463 C64.9151765,27.6781463 65.262454,27.8006472 65.262454,28.324165 C65.262454,28.8488386 64.9151765,28.9724951 64.4744455,28.9724951 L61.6235389,28.9724951 L61.6235389,30.7591587 L64.9567113,30.7591587 C65.4482071,30.7591587 65.8081759,30.9024616 65.8081759,31.4375361 C65.8081759,31.971455 65.4482071,32.1159136 64.9567113,32.1159136 L60.9255226,32.1159136 C60.3313433,32.1159136 59.9425309,31.8790015 59.9425309,31.1301283 L59.9425309,25.7054201 C59.9425309,24.9553912 60.3313433,24.7196348 60.9255226,24.7196348 Z M26.4758187,26.4150006 L26.4550512,26.4150006 L25.4605221,29.3827574 L27.4288129,29.3827574 L26.4758187,26.4150006 Z M40.9922517,26.4150006 L40.9714843,26.4150006 L39.9769552,29.3827574 L41.9440922,29.3827574 L40.9922517,26.4150006 Z M34.0397779,26.0139836 L32.3068513,26.0139836 L32.3068513,28.0063562 L33.9878593,28.0063562 C34.6247272,28.0063562 35.2592875,27.8422512 35.2592875,27.0113256 C35.2592875,26.2196926 34.7781754,26.0139836 34.0397779,26.0139836 Z M32.5641367,16.5409685 C34.1724587,16.5409685 35.0550744,17.5533341 35.0550744,18.1531261 C35.0550744,18.5472091 34.8416314,18.7875881 34.4216679,18.7875881 C33.6082769,18.7875881 33.8482561,17.6735236 32.5641367,17.6735236 C31.6826747,17.6735236 30.9546609,18.4362649 30.9546609,19.7745291 C30.9546609,20.8978389 31.4000069,21.8743788 32.6160553,21.8743788 C33.7201902,21.8743788 33.6936541,20.6909742 34.370903,20.6909742 C34.7135656,20.6909742 35.0550744,20.8897492 35.0550744,21.2329828 C35.0550744,22.1240032 33.9763219,23.0080897 32.6160553,23.0080897 C30.6892993,23.0080897 29.5505519,21.9009592 29.5505519,19.7745291 C29.5505519,18.0340922 30.5785397,16.5409685 32.5641367,16.5409685 Z M10.0868558,16.5409685 C11.1829145,16.5409685 12.4751101,17.1592511 12.4751101,17.9820871 C12.4751101,18.3334104 12.1762899,18.5391194 11.8336273,18.5391194 C11.1829145,18.5391194 11.3029041,17.6215185 9.99224858,17.6215185 C9.3415358,17.6215185 8.98272077,17.9219924 8.98272077,18.3507454 C8.98272077,18.7794984 9.49613777,18.917023 9.94148376,19.0198775 L11.1136898,19.2856813 C12.3989629,19.5769097 12.7231655,20.339651 12.7231655,21.0596325 C12.7231655,22.1748527 11.8855459,23.0080897 10.1906929,23.0080897 C8.40815523,23.0080897 7.61207044,22.1147579 7.61207044,21.4456258 C7.61207044,21.1035479 7.86127959,20.8631688 8.20394217,20.8631688 C8.96541458,20.8631688 8.768124,21.978389 10.1906929,21.978389 C10.9163992,21.978389 11.3202103,21.5750607 11.3202103,21.1636427 C11.3202103,20.9151739 11.199067,20.6412805 10.7202624,20.521091 L9.13732274,20.116607 C7.86127959,19.7918641 7.63053038,19.0880619 7.63053038,18.4281752 C7.63053038,17.055241 8.89618982,16.5409685 10.0868558,16.5409685 Z M28.5329479,16.6865827 C28.9356053,16.6865827 29.2621154,16.8922917 29.2621154,17.278285 C29.2621154,17.6642783 28.9356053,17.8699873 28.5329479,17.8699873 L27.2061399,17.8699873 L27.2061399,22.2696175 C27.2061399,22.6902808 26.9327021,22.972264 26.5046623,22.972264 C26.0766225,22.972264 25.8031847,22.6902808 25.8031847,22.2696175 L25.8031847,17.8699873 L24.475223,17.8699873 C24.0737194,17.8699873 23.748363,17.6642783 23.748363,17.278285 C23.748363,16.8922917 24.0737194,16.6865827 24.475223,16.6865827 Z M22.3384853,16.5756385 C22.7665251,16.5756385 23.0399629,16.8576216 23.0399629,17.278285 L23.0399629,22.2696175 C23.0399629,22.6902808 22.7665251,22.972264 22.3384853,22.972264 C21.9104455,22.972264 21.6370077,22.6902808 21.6370077,22.2696175 L21.6370077,17.278285 C21.6370077,16.8576216 21.9104455,16.5756385 22.3384853,16.5756385 Z M20.2202075,16.5756385 C20.5467176,16.5756385 20.8974564,16.7813475 20.8974564,17.2112562 C20.8974564,17.3476251 20.8639978,17.483994 20.8293854,17.6134289 L19.6214133,22.3042875 C19.4933475,22.7919797 19.2879807,22.972264 18.7745637,22.972264 C18.2438405,22.972264 18.0546261,22.7503756 17.9346365,22.2777072 L17.0185621,18.5136947 L17.001256,18.5136947 L16.0863353,22.2777072 C15.9755757,22.7503756 15.7782851,22.972264 15.2475619,22.972264 C14.7329912,22.972264 14.5287781,22.7919797 14.3995586,22.3042875 L13.1927402,17.6134289 C13.1592815,17.483994 13.1235154,17.3476251 13.1235154,17.2112562 C13.1235154,16.7813475 13.475408,16.5756385 13.7996106,16.5756385 C14.1595794,16.5756385 14.3741762,16.7385878 14.4595534,17.1500058 L15.2902505,21.2491621 L15.306403,21.2491621 L16.2663197,17.0980007 C16.3424669,16.7559228 16.4797627,16.5756385 17.001256,16.5756385 C17.5919739,16.5756385 17.7131173,16.8576216 17.7984945,17.2436149 L18.7318751,21.2491621 L18.7491812,21.2491621 L19.5879546,17.1500058 C19.6733318,16.7385878 19.8867749,16.5756385 20.2202075,16.5756385 Z M40.6299755,16.5756385 C41.0580152,16.5756385 41.3302993,16.8576216 41.3302993,17.278285 L41.3302993,22.2696175 C41.3302993,22.6902808 41.0580152,22.972264 40.6299755,22.972264 C40.2019357,22.972264 39.9284978,22.6902808 39.9284978,22.2696175 L39.9284978,20.2125274 L37.3764115,20.2125274 L37.3764115,22.2696175 C37.3764115,22.6902808 37.1029737,22.972264 36.6749339,22.972264 C36.2468941,22.972264 35.9723026,22.6902808 35.9723026,22.2696175 L35.9723026,17.278285 C35.9723026,16.8576216 36.2468941,16.5756385 36.6749339,16.5756385 C37.1029737,16.5756385 37.3764115,16.8576216 37.3764115,17.278285 L37.3764115,19.0279672 L39.9284978,19.0279672 L39.9284978,17.278285 C39.9284978,16.8576216 40.2019357,16.5756385 40.6299755,16.5756385 Z M55.3371227,4.30139836 C53.7853343,4.30139836 52.982327,5.46746793 52.982327,6.82653415 C52.982327,8.4895412 53.8718652,9.35282561 55.3775038,9.35282561 C56.4389502,9.35282561 57.2834923,8.66289148 57.2834923,7.96602334 C57.2834923,7.69790824 57.0158233,7.54420432 56.7493079,7.54420432 C56.2208922,7.54420432 56.2405059,8.46873917 55.3775038,8.46873917 C54.4268171,8.46873917 54.0783858,7.70484225 54.0783858,6.82653415 C54.0783858,5.78180978 54.6483363,5.1854848 55.3371227,5.1854848 C56.3408818,5.1854848 56.1539749,6.05685889 56.7885353,6.05685889 C57.1161992,6.05685889 57.2834923,5.86848492 57.2834923,5.55992141 C57.2834923,5.09187565 56.5947059,4.30139836 55.3371227,4.30139836 Z M60.1817025,4.30139836 C58.6045316,4.30139836 57.7472983,5.35305674 57.7472983,6.76643939 C57.7472983,8.22720444 58.4556983,9.35282561 60.1817025,9.35282561 C61.8269444,9.35282561 62.6161067,8.1255056 62.6161067,6.76643939 C62.6161067,5.35305674 61.7600271,4.30139836 60.1817025,4.30139836 Z M9.9349074,4.30139836 C8.38311894,4.30139836 7.58011168,5.46746793 7.58011168,6.82653415 C7.58011168,8.4895412 8.46964989,9.35282561 9.97528851,9.35282561 C11.0378886,9.35282561 11.8801233,8.66289148 11.8801233,7.96602334 C11.8801233,7.69790824 11.6136079,7.54420432 11.3459388,7.54420432 C10.8175231,7.54420432 10.8371368,8.46873917 9.97528851,8.46873917 C9.02460175,8.46873917 8.67617044,7.70484225 8.67617044,6.82653415 C8.67617044,5.78180978 9.246121,5.1854848 9.9349074,5.1854848 C10.9375127,5.1854848 10.7506059,6.05685889 11.38632,6.05685889 C11.7139838,6.05685889 11.8801233,5.86848492 11.8801233,5.55992141 C11.8801233,5.09187565 11.1924906,4.30139836 9.9349074,4.30139836 Z M16.2101323,4.32682307 C15.8755459,4.32682307 15.6609491,4.54755576 15.6609491,4.87807697 L15.6609491,7.51762395 C15.6609491,8.17404368 15.2940579,8.46873917 14.6652663,8.46873917 C14.0364747,8.46873917 13.6684297,8.17404368 13.6684297,7.51762395 L13.6684297,4.87807697 C13.6684297,4.54755576 13.4538329,4.32682307 13.1204003,4.32682307 C12.7858139,4.32682307 12.5712172,4.54755576 12.5712172,4.87807697 L12.5712172,7.42979314 C12.5712172,8.75650064 13.3869156,9.35282561 14.6652663,9.35282561 C15.9424632,9.35282561 16.7593154,8.75650064 16.7593154,7.42979314 L16.7593154,4.87807697 C16.7593154,4.54755576 16.5447186,4.32682307 16.2101323,4.32682307 Z M50.5410003,4.30139836 C48.9903656,4.30139836 48.1873583,5.46746793 48.1873583,6.82653415 C48.1873583,8.4895412 49.0757428,9.35282561 50.5825352,9.35282561 C51.6451353,9.35282561 52.4896774,8.66289148 52.4896774,7.96602334 C52.4896774,7.69790824 52.2208546,7.54420432 51.9531855,7.54420432 C51.4247698,7.54420432 51.4443835,8.46873917 50.5825352,8.46873917 C49.6330022,8.46873917 49.2845708,7.70484225 49.2845708,6.82653415 C49.2845708,5.78180978 49.8522139,5.1854848 50.5410003,5.1854848 C51.5459131,5.1854848 51.3578525,6.05685889 51.9947204,6.05685889 C52.3200767,6.05685889 52.4896774,5.86848492 52.4896774,5.55992141 C52.4896774,5.09187565 51.7997373,4.30139836 50.5410003,4.30139836 Z M67.0245704,4.32682307 C66.6888303,4.32682307 66.476541,4.54755576 66.476541,4.87807697 L66.476541,7.51762395 C66.476541,8.17404368 66.1073423,8.46873917 65.4797044,8.46873917 C64.8509128,8.46873917 64.4817141,8.17404368 64.4817141,7.51762395 L64.4817141,4.87807697 C64.4817141,4.54755576 64.268271,4.32682307 63.9336847,4.32682307 C63.5990983,4.32682307 63.3845016,4.54755576 63.3845016,4.87807697 L63.3845016,7.42979314 C63.3845016,8.75650064 64.2025075,9.35282561 65.4797044,9.35282561 C66.7557476,9.35282561 67.5725998,8.75650064 67.5725998,7.42979314 L67.5725998,4.87807697 C67.5725998,4.54755576 67.358003,4.32682307 67.0245704,4.32682307 Z M72.2671925,4.32682307 C71.9383749,4.32682307 71.7364693,4.50132902 71.7364693,4.85727493 L71.7364693,7.71871027 L71.7237781,7.71871027 L69.8039447,4.61574021 C69.6828013,4.41465388 69.4832033,4.32682307 69.2547616,4.32682307 C68.7886481,4.32682307 68.5671289,4.51519704 68.5671289,4.97053045 L68.5671289,8.79694904 C68.5671289,9.15173928 68.7678807,9.3274009 69.0943909,9.3274009 C69.4220547,9.3274009 69.6239603,9.15173928 69.6239603,8.79694904 L69.6239603,6.01641049 L69.6378052,6.01641049 L71.54264,9.03154975 C71.683397,9.25112678 71.7976179,9.3274009 72.1448955,9.3274009 C72.6075476,9.3274009 72.7944545,9.07777649 72.7944545,8.64324512 L72.7944545,4.85727493 C72.7944545,4.50132902 72.5925489,4.32682307 72.2671925,4.32682307 Z M20.2309373,4.41465388 L18.4034036,4.41465388 C18.0157449,4.41465388 17.7619207,4.56835779 17.7619207,5.05836126 L17.7619207,8.776147 C17.7619207,9.10551254 17.9765175,9.3274009 18.3111039,9.3274009 C18.6445365,9.3274009 18.8591332,9.10551254 18.8591332,8.776147 L18.8591332,7.36276436 L19.9425008,7.36276436 C20.5436025,7.36276436 20.6982045,7.70484225 20.6982045,8.54963596 C20.6982045,8.74263261 20.7455081,9.3274009 21.3477635,9.3274009 C21.6015877,9.3274009 21.8623343,9.15173928 21.8623343,8.8974922 C21.8623343,8.66866983 21.7146548,8.46064949 21.7146548,7.90592858 C21.7146548,7.41592511 21.6154326,7.00797411 21.0524045,6.92707731 L21.0524045,6.91436496 C21.5738977,6.79301976 21.8819479,6.27759159 21.8819479,5.75291806 C21.8819479,5.13232405 21.5346704,4.41465388 20.2309373,4.41465388 Z M45.8775587,4.32682307 L45.6145046,4.32682307 C45.3468355,4.32682307 45.1737736,4.41465388 45.0791664,4.66196695 L43.6612125,8.42135675 C43.6219851,8.52883393 43.5550679,8.72298625 43.5550679,8.84317578 C43.5550679,9.13787126 43.7615884,9.3274009 44.0638699,9.3274009 C44.3234627,9.3274009 44.4780647,9.23841442 44.5519045,9.02461574 L44.8380335,8.22027043 L46.6044187,8.22027043 L46.8870865,9.02461574 C46.9655412,9.23841442 47.1397569,9.3274009 47.3808898,9.3274009 C47.6612501,9.3274009 47.8954606,9.11129088 47.8954606,8.84317578 C47.8954606,8.72298625 47.8285433,8.52883393 47.7893159,8.42135675 L46.4636617,4.73015139 C46.3436721,4.3880735 46.1244604,4.32682307 45.8775587,4.32682307 Z M77.1025423,4.41465388 L73.9332019,4.41465388 C73.6170754,4.41465388 73.3632513,4.57529181 73.3632513,4.87807697 C73.3632513,5.17739512 73.6170754,5.33918872 73.9332019,5.33918872 L74.9681121,5.33918872 L74.9681121,8.776147 C74.9681121,9.10551254 75.1815551,9.3274009 75.5161415,9.3274009 C75.8507278,9.3274009 76.0653246,9.10551254 76.0653246,8.776147 L76.0653246,5.33918872 L77.1025423,5.33918872 C77.4163612,5.33918872 77.6713391,5.17739512 77.6713391,4.87807697 C77.6713391,4.57529181 77.4163612,4.41465388 77.1025423,4.41465388 Z M25.2139666,4.41465388 L23.3887403,4.41465388 C22.9999279,4.41465388 22.74495,4.56835779 22.74495,5.05836126 L22.74495,8.776147 C22.74495,9.10551254 22.9618543,9.3274009 23.2941331,9.3274009 C23.6298732,9.3274009 23.8421625,9.10551254 23.8421625,8.776147 L23.8421625,7.36276436 L24.9266838,7.36276436 C25.5277855,7.36276436 25.6835412,7.70484225 25.6835412,8.54963596 C25.6835412,8.74263261 25.7296911,9.3274009 26.3319465,9.3274009 C26.5857707,9.3274009 26.8465173,9.15173928 26.8465173,8.8974922 C26.8465173,8.66866983 26.6988378,8.46064949 26.6988378,7.90592858 C26.6988378,7.41592511 26.5984619,7.00797411 26.0365875,6.92707731 L26.0365875,6.91436496 C26.5592345,6.79301976 26.8672847,6.27759159 26.8672847,5.75291806 C26.8672847,5.13232405 26.5200071,4.41465388 25.2139666,4.41465388 Z M40.7999222,4.41465388 L37.629428,4.41465388 C37.3144554,4.41465388 37.0583237,4.57529181 37.0583237,4.87807697 C37.0583237,5.17739512 37.3144554,5.33918872 37.629428,5.33918872 L38.6643383,5.33918872 L38.6643383,8.776147 C38.6643383,9.10551254 38.878935,9.3274009 39.2135214,9.3274009 C39.5481078,9.3274009 39.7627045,9.10551254 39.7627045,8.776147 L39.7627045,5.33918872 L40.7999222,5.33918872 C41.1125874,5.33918872 41.3675653,5.17739512 41.3675653,4.87807697 C41.3675653,4.57529181 41.1125874,4.41465388 40.7999222,4.41465388 Z M35.962265,4.32682307 C35.6357548,4.32682307 35.435003,4.50132902 35.435003,4.85727493 L35.435003,7.71871027 L35.4211581,7.71871027 L33.5001709,4.61574021 C33.381335,4.41465388 33.1794295,4.32682307 32.9521415,4.32682307 C32.4837206,4.32682307 32.2645088,4.51519704 32.2645088,4.97053045 L32.2645088,8.79694904 C32.2645088,9.15173928 32.4652606,9.3274009 32.7917708,9.3274009 C33.1205884,9.3274009 33.3213402,9.15173928 33.3213402,8.79694904 L33.3213402,6.01641049 L33.3340314,6.01641049 L35.2400199,9.03154975 C35.380777,9.25112678 35.4949978,9.3274009 35.8434291,9.3274009 C36.3037738,9.3274009 36.4906807,9.07777649 36.4906807,8.64324512 L36.4906807,4.85727493 C36.4906807,4.50132902 36.2910826,4.32682307 35.962265,4.32682307 Z M30.9526995,4.41465388 L28.3763846,4.41465388 C27.9875721,4.41465388 27.7349018,4.56835779 27.7349018,5.05836126 L27.7349018,8.59586271 C27.7349018,9.08471051 27.9875721,9.23841442 28.3763846,9.23841442 L31.0046181,9.23841442 C31.3265133,9.23841442 31.55957,9.14596094 31.55957,8.79694904 C31.55957,8.44793713 31.3265133,8.35432798 31.0046181,8.35432798 L28.8309605,8.35432798 L28.8309605,7.18825841 L30.6907992,7.18825841 C30.978082,7.18825841 31.2065237,7.10851728 31.2065237,6.76643939 C31.2065237,6.42551716 30.978082,6.34462036 30.6907992,6.34462036 L28.8309605,6.34462036 L28.8309605,5.29874032 L30.9526995,5.29874032 C31.2722872,5.29874032 31.5076514,5.20513117 31.5076514,4.85727493 C31.5076514,4.50826303 31.2722872,4.41465388 30.9526995,4.41465388 Z M60.1817025,5.1854848 C61.0781632,5.1854848 61.5200479,5.84074887 61.5200479,6.76643939 C61.5200479,7.69097423 61.1785391,8.46873917 60.1817025,8.46873917 C59.152561,8.46873917 58.8445108,7.69097423 58.8445108,6.76643939 C58.8445108,5.84074887 59.2852418,5.1854848 60.1817025,5.1854848 Z M45.7425704,5.52062868 L46.3655933,7.45637351 L45.0791664,7.45637351 L45.7287255,5.52062868 L45.7425704,5.52062868 Z M24.9751412,5.25944759 C25.4550995,5.25944759 25.7689185,5.39234947 25.7689185,5.90893332 C25.7689185,6.45094187 25.3547236,6.55957471 24.9405288,6.55957471 L23.8421625,6.55957471 L23.8421625,5.25944759 L24.9751412,5.25944759 Z M19.9886507,5.25944759 C20.4697628,5.25944759 20.7858892,5.39234947 20.7858892,5.90893332 C20.7858892,6.45094187 20.3693869,6.55957471 19.9563458,6.55957471 L18.8591332,6.55957471 L18.8591332,5.25944759 Z" id="Logo"></path>
        </g>
    </g>
</svg>